<?xml version="1.0" encoding="UTF-8" standalone="no"?><!DOCTYPE svg PUBLIC "-//W3C//DTD SVG 1.1//EN" "http://www.w3.org/Graphics/SVG/1.1/DTD/svg11.dtd"><svg width="100%" height="100%" viewBox="0 0 1042 1042" version="1.1" xmlns="http://www.w3.org/2000/svg" xmlns:xlink="http://www.w3.org/1999/xlink" xml:space="preserve" xmlns:serif="http://www.serif.com/" style="fill-rule:evenodd;clip-rule:evenodd;stroke-linejoin:round;stroke-miterlimit:2;"><path d="M437.5,47.125l0,40.833333l-81.666667,0l0,44.291667l-166.375,0l0,46.083333l-46.041667,0l0,82.708333l-40.583333,0l0,45.541667l-41.875,0l0,41.833333l-39.75,0l0,169.541667l39.75,0l0,43.791667l83.708333,0l0,40.833333l790,0l0,-40.833333l43.416667,0l0,-43.791667l42.25,0l0,-169.541667l-42.25,0l0,-43.291667l-43.416667,0l0,-85.166667l-46.041667,0l0,-41.625l-41,0l0,-46.083333l-124,0l0,-44.291667l-83.708333,0l0,-40.833333l-202.416667,0Z" style="fill:#479fce;fill-rule:nonzero;"/><path d="M61.125,348.416667l41.875,0l0,-45.041667l86.625,0l0,-126.75l166.375,0l0,-44.375l81.666667,0l0,-42.625l202.208333,0l0,2l81.958333,0l0,40.625l125.458333,0l0,44.375l41.291667,0l0,43.333333l43.708333,0l0,85.166667l43.458333,0l0,43.291667l42,0l0,168.125l-43.458333,0l0,40.833333l-911.666667,0l0,-40.833333l-39,0l0,-168.125l37.583333,0l-0.083333,0Z" style="fill:#479fce;fill-rule:nonzero;"/><path d="M61.125,348.416667l39.708333,0l0,-43.291667l88.791667,0l0,-88.625l36.583333,0l0,-39.875l129.791667,0l0,-44.375l81.666667,0l0,-42.625l202.208333,0l0,2l53.625,0l0,40.625l153.791667,0l0,44.375l41.291667,0l0,43.333333l43.708333,0l0,85.166667l42,0l0,43.291667l41.166667,0l0,168.125l-77.916667,0l0,45.041667l-792.5,0l-0,-45.041667l-83.708333,0l0,-168.125l-0.208333,0Z" style="fill:#5db8e8;fill-rule:nonzero;"/><path d="M60.916667,348.416667l42.083333,0l0,-43.291667l84.916667,0l0,-86.916667l38.291667,0l0,-41.583333l131.958333,0l0,43.333333l37.333333,0l0,-86l42.166667,0l0,-42.625l202.208333,0l0,2l43.708333,0l0,40.625l40.291667,0l0,42.666667l43.458333,0l0,82.708333l40.291667,0l0,-82.708333l39.958333,0l0,43.333333l41,0l0,85.166667l43.708333,0l0,43.291667l41.708333,0l0,168.125l-36.875,0l0,40.833333l-792.5,0l0,-40.833333l-83.708333,0l-0,-168.125Z" style="fill:#67c5f0;fill-rule:nonzero;"/><path d="M61.125,348.416667l39.708333,0l0,40.833333l42.291667,0l0,-40.833333l42.291667,0l0,-45.291667l43.416667,0l0,-42.083333l83,0l0,-84.416667l46.625,0l0,43.333333l37.333333,0l0,-43.333333l83.416667,0l0,-46.083333l204.375,0l0,89.416667l40.291667,0l0,41.083333l43.458333,0l0,44.083333l121.25,0l0,43.291667l46.583333,0l0,87.125l-43.708333,0l0,40.833333l-83.833333,0l0,41.583333l-453.333333,0l0,-41.583333l-45.458333,0l0,-85.458333l-38.166667,0l0,125.625l-82.125,0l0,-38.458333l-89.083333,0l0,-44.25l-38.291667,0l0,-85.416667l-0.041667,0Z" style="fill:#91dbfe;fill-rule:nonzero;"/><rect x="437.5" y="87.958333" width="40" height="44.291667" style="fill:#91dbfe;fill-rule:nonzero;"/><rect x="477.5" y="87.958333" width="122.25" height="40.833333" style="fill:#c7f0ff;fill-rule:nonzero;"/><rect x="600" y="87.958333" width="39.958333" height="40.833333" style="fill:#67c5f0;fill-rule:nonzero;"/><rect x="395.5" y="132.25" width="83.416667" height="44.375" style="fill:#c7f0ff;fill-rule:nonzero;"/><rect x="187.916667" y="176.625" width="38.291667" height="39.875" style="fill:#91dbfe;fill-rule:nonzero;"/><rect x="767.5" y="176.625" width="40.291667" height="82.708333" style="fill:#c7f0ff;fill-rule:nonzero;"/><rect x="187.916667" y="218.208333" width="38.291667" height="85.166667" style="fill:#c7f0ff;fill-rule:nonzero;"/><rect x="103" y="305.125" width="42.458333" height="43.291667" style="fill:#5db8e8;fill-rule:nonzero;"/><rect x="145.458333" y="305.125" width="39.958333" height="43.291667" style="fill:#c7f0ff;fill-rule:nonzero;"/><rect x="437.5" y="261.041667" width="80.208333" height="44.083333" style="fill:#67c5f0;fill-rule:nonzero;"/><rect x="356" y="305.125" width="80.541667" height="43.291667" style="fill:#67c5f0;fill-rule:nonzero;"/><rect x="517.916667" y="305.125" width="39.208333" height="43.291667" style="fill:#67c5f0;fill-rule:nonzero;"/><rect x="61.125" y="305.125" width="39.708333" height="43.291667" style="fill:#3f96c4;fill-rule:nonzero;"/><rect x="437.5" y="305.125" width="80.208333" height="43.291667" style="fill:#c7f0ff;fill-rule:nonzero;"/><rect x="932.5" y="305.125" width="43.458333" height="43.291667" style="fill:#3f96c4;fill-rule:nonzero;"/><rect x="61.125" y="516.666667" width="83.708333" height="45.041667" style="fill:#3f96c4;fill-rule:nonzero;"/><rect x="937.5" y="516.666667" width="40.625" height="40.833333" style="fill:#3f96c4;fill-rule:nonzero;"/><rect x="308.791667" y="348.416667" width="43.75" height="42.5" style="fill:#67c5f0;fill-rule:nonzero;"/><rect x="353.375" y="348.416667" width="83.166667" height="40.833333" style="fill:#c7f0ff;fill-rule:nonzero;"/><rect x="557.083333" y="348.416667" width="42.833333" height="40.833333" style="fill:#67c5f0;fill-rule:nonzero;"/><rect x="308.791667" y="390.916667" width="44.583333" height="40.791667" style="fill:#c7f0ff;fill-rule:nonzero;"/><path d="M395.5,602.5l0,90.541667l-41.25,0l0,127.25l82,0l0,40.541667l-41.875,0l0,130.458333l41.875,0l0,-46.083333l41.875,0l0,-43l40.041667,0l0,-44.375l39.791667,0l0,-41.125l42.541667,0l0,-41.375l40.583333,0l0,-82.291667l-41.458333,0l0,-90.541667l-204.125,0Z" style="fill:#e0b907;fill-rule:nonzero;"/><path d="M435.833333,602.5l0,44.125l42.166667,0l0,46.416667l-42.166667,0l0,-0.833333l-40.458333,0l0,41.083333l40.458333,0l0,0.833333l-40.458333,0l0,44.583333l84,0l0,82.125l-43.25,0l0,41.375l41.875,0l0,-41.375l40.041667,0l0,-44.125l39.791667,0l0,-83.125l41.666667,0l0,-40.541667l-80.333333,0l0,-47l39.958333,0l0,-43.541667l-123.291667,0Z" style="fill:#fef176;fill-rule:nonzero;"/><rect x="557.916667" y="775.416667" width="42.541667" height="41.375" style="fill:#d1aa0b;fill-rule:nonzero;"/><rect x="478.083333" y="778.75" width="40.041667" height="79.125" style="fill:#f9dc23;fill-rule:nonzero;"/><rect x="478.333333" y="860.833333" width="40.041667" height="41.375" style="fill:#d1aa0b;fill-rule:nonzero;"/><path d="M517.5,646.25l82.333333,0l0,0.291667l0,-43.833333l-42.25,0l0,43.541667l-40.083333,0Z" style="fill:#e0b907;fill-rule:nonzero;"/><rect x="478.333333" y="693.333333" width="39.75" height="39.083333" style="fill:#f9dc23;fill-rule:nonzero;"/></svg>